<mxfile host="app.diagrams.net" modified="2024-01-05T02:11:59.612Z" agent="Mozilla/5.0 (Windows NT 10.0; Win64; x64) AppleWebKit/537.36 (KHTML, like Gecko) Chrome/120.0.0.0 Safari/537.36" etag="8-FtDnwDMHpxZiE51EZg" version="22.1.16" type="github">
  <diagram name="第 1 页" id="owgYVJfNqeMpOjTP9lmt">
    <mxGraphModel dx="1434" dy="746" grid="1" gridSize="10" guides="1" tooltips="1" connect="1" arrows="1" fold="1" page="1" pageScale="1" pageWidth="827" pageHeight="1169" math="0" shadow="0">
      <root>
        <mxCell id="0" />
        <mxCell id="1" parent="0" />
        <mxCell id="Jmftzy_BqqMXz2ZiVbYZ-1" value="" style="rounded=0;whiteSpace=wrap;html=1;dashed=1;fillColor=#f5f5f5;fontColor=#333333;strokeColor=#666666;" vertex="1" parent="1">
          <mxGeometry x="60" y="10" width="250" height="360" as="geometry" />
        </mxCell>
        <mxCell id="Jmftzy_BqqMXz2ZiVbYZ-2" value="数据同步" style="text;strokeColor=none;align=center;fillColor=none;html=1;verticalAlign=middle;whiteSpace=wrap;rounded=0;" vertex="1" parent="1">
          <mxGeometry x="60" y="10" width="60" height="30" as="geometry" />
        </mxCell>
        <mxCell id="Jmftzy_BqqMXz2ZiVbYZ-3" value="&lt;font style=&quot;font-size: 12px;&quot;&gt;&lt;b style=&quot;border-color: var(--border-color);&quot;&gt;&lt;u style=&quot;border-color: var(--border-color);&quot;&gt;table:&lt;/u&gt;&lt;/b&gt;&amp;nbsp;&lt;br style=&quot;border-color: var(--border-color);&quot;&gt;ods_sap_acdoca&lt;b style=&quot;border-color: var(--border-color);&quot;&gt;&lt;u style=&quot;border-color: var(--border-color);&quot;&gt;&lt;br style=&quot;border-color: var(--border-color);&quot;&gt;job:&lt;/u&gt;&lt;/b&gt;&lt;br style=&quot;border-color: var(--border-color);&quot;&gt;job_imp_ods_sap_ACDOCA_7618&lt;u style=&quot;font-weight: bold;&quot;&gt;&lt;br&gt;datasource:&lt;/u&gt;&lt;br&gt;sap&lt;br&gt;&lt;u style=&quot;font-weight: bold;&quot;&gt;source table:&lt;/u&gt;&amp;nbsp;&lt;br&gt;ACDOCA(通用期刊条目项)&lt;br&gt;BKPF(会计核算凭证标题)&lt;/font&gt;" style="rounded=0;whiteSpace=wrap;html=1;align=left;fillColor=#dae8fc;strokeColor=#6c8ebf;" vertex="1" parent="1">
          <mxGeometry x="75" y="40" width="220" height="150" as="geometry" />
        </mxCell>
      </root>
    </mxGraphModel>
  </diagram>
</mxfile>
